<?xml version="1.0" encoding="utf-8"?>
<!-- Generator: Adobe Illustrator 17.0.0, SVG Export Plug-In . SVG Version: 6.00 Build 0)  -->
<!DOCTYPE svg PUBLIC "-//W3C//DTD SVG 1.1//EN" "http://www.w3.org/Graphics/SVG/1.1/DTD/svg11.dtd">
<svg version="1.1" xmlns="http://www.w3.org/2000/svg" xmlns:xlink="http://www.w3.org/1999/xlink" x="0px" y="0px" width="959px"
	 height="639px" viewBox="0 0 959 639" enable-background="new 0 0 959 639" xml:space="preserve">
<g id="Layer_1">
	<rect fill="#0065BD" width="480.875" height="639"/>
	<rect x="480.875" fill="#F2CE01" width="478.125" height="639"/>
	<path fill="#CD263E" d="M642.5,376.92v56H587c0,0,1-43.5,0-60.5s-78-19.5-78-19.5l0.5,80H454l0.5-80c0,0-77,2.5-78,19.5
		s0,60.5,0,60.5H321v-56c0,0-11-34,132.5-34V298C310,298,321,264,321,264v-56h55.5c0,0-1,43.5,0,60.5s77,19.5,77,19.5l-0.5-80h57.5
		l-0.5,80c0,0,76-2.5,77-19.5s0-60.5,0-60.5h55.5v56c0,0,11,34-132.5,34v44.92C653.5,342.92,642.5,376.92,642.5,376.92z"/>
	<ellipse fill="#0065BD" cx="674.79" cy="481.458" rx="10.125" ry="10"/>
	<ellipse fill="#0065BD" cx="595.513" cy="522.708" rx="10.125" ry="10"/>
	<ellipse fill="#0065BD" cx="650.304" cy="455.687" rx="10.125" ry="10"/>
	<ellipse fill="#0065BD" cx="575.263" cy="491.458" rx="10.125" ry="10"/>
	<ellipse fill="#0065BD" cx="703.09" cy="395.539" rx="10.125" ry="10"/>
	<ellipse fill="#0065BD" cx="737.587" cy="409.917" rx="10.125" ry="10"/>
	<ellipse fill="#0065BD" cx="721.669" cy="324.839" rx="10.125" ry="10"/>
	<ellipse fill="#0065BD" cx="759.584" cy="324.839" rx="10.125" ry="10"/>
	<path fill="#F2CE01" d="M480.88,536.72c-8.25,1.86-44.13,5.78-44.13,5.78l-0.5-5.5c0,0,24.87-2.5,27.25-4.5l-28.88-4.75l-27.37,23
		l-42.75-2L396.75,524h25.5c-38.88-9.62-66.04-20.36-66.04-20.36L326.5,524l-41.35-4.86L317,496l28.41,2.2
		C301.62,479.87,278,455.75,278,455.75L237.25,462l-32.5-20l40.5-7.25l28.62,16.37C245.5,427.5,230.5,386,230.5,386l-38-9.25
		l-22-32.5l39.5,9.25l18.12,26.75C216.5,350.62,217.25,306,217.25,306l-33-19.5L174,249l34.32,21.42l9.43,31.08l1-31.75l-3.42-32.21
		l25.17-31.29l3.13,39.37l-20.38,25.13v33.37l10.5-27.37l36-18.25L257,295l-33.62,17.37c0,0-1,38,12.12,69.25l0.13-28.37L264.75,326
		l0.38,39.25l-26.63,24.5c0,0,15.37,35.87,43.25,60.75l-13.24-26.15l12.74-36.6L298.5,423L287,454.87c0,0,27.25,25.38,70,41.88
		l-22.5-19.5L330.75,439l30.75,24.75l3.5,36.38c0,0,52.39,21.18,115.88,29.01"/>
	<path fill="#0065BD" d="M480.88,529.14c63.49-7.84,115.87-29.02,115.87-29.02l3.5-36.37L631,439l-3.75,38.25l-22.5,19.5
		c42.75-16.5,70-41.87,70-41.87L663.25,423l17.25-35.25l12.74,36.6L680,450.5c27.88-24.88,43.25-60.75,43.25-60.75l-26.63-24.5
		L697,326l29.12,27.25l0.13,28.37c13.13-31.24,12.13-69.24,12.13-69.24L704.75,295L692,258.5l36,18.25l10.5,27.37v-33.37
		l-20.38-25.13l3.13-39.37l25.17,31.29L743,269.75l1,31.75l9.43-31.08L787.75,249l-10.25,37.5l-33,19.5c0,0,0.75,44.62-10.88,74.25
		l18.13-26.75l39.5-9.25l-22,32.5l-38,9.25c0,0-15,41.5-43.37,65.12l28.62-16.37L757,442l-32.5,20l-40.75-6.25
		c0,0-23.63,24.13-67.41,42.45l28.41-2.2l31.85,23.14L635.25,524l-29.71-20.36c0,0-27.16,10.74-66.04,20.36H565l32.25,24.75
		l-42.75,2l-27.38-23l-28.87,4.75c2.37,2,27.25,4.5,27.25,4.5l-0.5,5.5c0,0-35.85-3.92-44.12-5.78"/>
	<ellipse fill="#F2CE01" cx="286.96" cy="481.458" rx="10.125" ry="10"/>
	<ellipse fill="#F2CE01" cx="366.237" cy="522.708" rx="10.125" ry="10"/>
	<ellipse fill="#F2CE01" cx="311.446" cy="455.687" rx="10.125" ry="10"/>
	<ellipse fill="#F2CE01" cx="386.487" cy="491.458" rx="10.125" ry="10"/>
	<ellipse fill="#F2CE01" cx="258.66" cy="395.539" rx="10.125" ry="10"/>
	<ellipse fill="#F2CE01" cx="224.163" cy="409.917" rx="10.125" ry="10"/>
	<ellipse fill="#F2CE01" cx="240.081" cy="324.839" rx="10.125" ry="10"/>
	<ellipse fill="#F2CE01" cx="202.166" cy="324.839" rx="10.125" ry="10"/>
	<path fill="#FFFFFF" d="M480.627,529.109"/>
</g>
<g id="Layer_2">
</g>
</svg>
