<svg height='300px' width='300px'  fill="#000000" xmlns="http://www.w3.org/2000/svg" xmlns:xlink="http://www.w3.org/1999/xlink" version="1.1" x="0px" y="0px" viewBox="0 0 100 100" enable-background="new 0 0 100 100" xml:space="preserve"><g><path d="M48.424,22.062l2.197,2.176l-0.284,15.969c0.039,0,0.084,0,0.125,0c11.89,0,20.487-7.676,24.321-14.393   c2.615-0.691,5.473-1.529,5.473-1.529S69.896,43.56,50.261,44.515L50.04,56.934C68.681,57.908,82.47,75.395,82.47,75.395   s-2.984,1.36-7.144,3.049c0,0-12.281-15.238-25.37-16.939L49.68,77.35l-3.943-3.99l0.63-12.014   c-17.295,0.367-26.681,15.279-26.681,15.279l-2.984,0.725c2.452-8.75,11.659-19.732,29.896-20.426l0.65-12.414   c-17.312-1.003-26.271-19.14-26.271-19.14l6.808-1.779c0,0,7.84,14.672,19.7,16.422L48.424,22.062 M43.865,10.28L42.688,32.7   c-6.131-3.918-10.293-11.443-10.347-11.541l-1.921-3.594l-16.886,4.4l2.808,5.688c0.383,0.773,8.801,17.453,25.495,21.287   l-0.17,3.217c-17.742,2.379-27.191,13.969-29.945,23.795l-2.385,8.5l13.605-3.3l1.114-1.772c0.062-0.094,6.102-9.319,16.813-12.094   l-0.423,8.078l14.177,14.354L55,68.4c7.154,3.355,13.873,10.295,16.304,13.293l2.409,2.979L90.6,77.364l-4.072-5.171   c-0.574-0.728-13.146-16.411-31.238-19.819l0.056-3.256c19.133-3.555,29.021-21.56,29.463-22.383l5.854-10.888l-19.295,5.524   l-1.074,1.889c-2.521,4.416-7.651,9.438-14.684,11.158l0.217-12.297L43.865,10.28L43.865,10.28z"></path></g></svg>