<svg height='300px' width='300px'  fill="#000000" xmlns="http://www.w3.org/2000/svg" xmlns:xlink="http://www.w3.org/1999/xlink" version="1.1" x="0px" y="0px" viewBox="0 0 100 100" enable-background="new 0 0 100 100" xml:space="preserve"><path d="M74.818,64.152l-0.375-0.625c-0.357-0.246-0.697,0.082-1.363-0.482l1.363,1.561c-1.104-0.68-1.82-1.369-3.236-2.334  c-0.277-0.23-0.35-0.36-0.35-0.426c-1.148-0.805-2.477-1.354-3.707-2.039l-1.049-0.801c-1.23-0.455-2.283-0.963-3.957-1.391  c-0.217,0.365-1.154-0.588-1.332-0.127c-0.275-0.398-0.506-0.279-0.791-0.438c-1.646-0.812-4.9-1.104-6.311-1.207  c1.396,0.278,6.133,2.301,8.004,3.152l0,0l4.729,2.047l2.812,1.25l1.188,1.531l1.219,1.438c0,0-2.656-1.469-2.812-1.656  s-3.281-1.477-3.281-1.477s-2.344-0.836-2.562-0.992s-1.688-1.125-1.688-1.125s-1.779-1.03-1.533-0.973  c0.275,0.013,0.805,0,1.242-0.015c-3.209-1.21-6.662-2.056-10.316-2.247l0.047-2.715l1.166-1.875l1.193-6.737  c0.068,1.703,11.242-1.627,15.02-5c4.432-2.606,8.699-5.944,11.963-9.86l1.547-4.078l1.25-1.057c0,0-1.625-2.678-2.643-3.603  l-5.086,1.445c-3.547,2.439-1.619,1.652-2.695,2.643c-0.658,1.181-1.666,2.146-2.482,3.232c-3.738,4-8.607,6.955-13.926,8.062  c-0.729,0.324-1.479,0.525-2.262,0.646l-0.758,0.015c-0.02-0.229,0.268-6.333,0.268-6.333l0.068-6.084  c-0.316-1.175,0.748,0.506-0.693-3.009l-1.035-1.055l-1.012-1.051l-0.228-0.414c-0.727,0.515-2.703,0.969-3.505,1.844  c-0.12,0.281-0.043,0.468-0.063,0.701l-0.068,0.704l0.247,0.168c-0.098,2.119-0.247,1.97-0.315,2.49l-0.355,7.417l-0.173,3.724  l-0.007,0.196c-3.729-1.055-7.071-3.709-9.898-6.602c-1.634-1.641-3.068-3.492-4.381-5.383c-1.687-1.275,1.045-1.172-4.113-3.633  l-3.442,0.896c-1.56,1.612-1.331-2.38-4.346,3.835l1.88,3.176c1.301,2.017,2.759,3.877,4.276,5.646  c1.046,1.483,5.175,5.157,6.404,5.951c2.516,1.821,5.591,2.866,8.53,4.098l4.676,0.869l-0.041,0.707l-0.086,0.337l0.078,1.594  c-0.021,0.112-0.361,0.869-0.375,0.781c0.032,1.526,0.13,3.312-0.019,5.359l-1.762,0.147l-0.635,0.017  C31.437,56.046,20.616,63.4,16.31,74.04l-0.914,2.541l-0.012,0.028c0,0,4.061,2.986,6.877,0.711l1.082-1.455  c1.524-1.965,3.346-3.715,5.229-5.385c3.878-3.233,8.523-5.394,13.434-6.49l2.564-0.233l-0.096,11.786  c1.327,3.519,4.281,3.229,4.281,3.229c1.344,0.1,2.453-0.213,4.062-0.572l0.074-11.283c0.047-0.328,0.09-1.209,0.131-2.4  l0.418,0.107c1.338,0.182,2.641,1.023,3.99,1.576c5.342,2.604,10.07,6.73,10.801,7.387l-2.119-3.274  c3.248,2.705,5.807,6.249,7.705,8.483c5.33,2.908,3.896-0.166,6.227-0.016c1.146-2.092,4.232,2.766,4.57-4.627l-0.4-0.656  c-0.807-0.744-0.059-0.91-8.646-8.75L74.818,64.152z"></path></svg>