<svg width="100" height="70" viewBox="0 0 100 70" version="1.1" xmlns="http://www.w3.org/2000/svg"><title>Group</title><g stroke="none" stroke-width="1" fill="none" fill-rule="evenodd"><g fill="#FFF" fill-rule="nonzero"><g><path d="M86.705 34v-8.684c.694 0 1.214-.527 1.214-1.176 0-.048-.003-.094-.009-.14H76.703a1.168 1.168 0 0 0 1.153 1.316h.112V34h8.737zm-73.716 0l-.032-8.684A1.168 1.168 0 0 1 11.805 24h11.206a1.168 1.168 0 0 1-1.153 1.316h-.052V34h-8.817zm20.57 0v-8.684h-.061A1.168 1.168 0 0 1 32.345 24h11.207a1.168 1.168 0 0 1-1.153 1.316h-.104V34h-8.737.001zm21.736 0v-8.684h-.06A1.168 1.168 0 0 1 54.082 24h11.207a1.168 1.168 0 0 1-1.153 1.316h-.104V34h-8.737z" opacity=".8"/><path d="M86.705 34v22.997h3.744v4.374h4.992v4.286H100V70H0v-4.343h4.333V61.37h4.576v-4.374h4.161L12.985 34h8.821v22.996h11.752V34h8.737v22.996h13V34h8.737v22.996h13.936V34h8.737zM90 24.24h3.263L49.056 0 4.848 24.24H11V24h79v.24z"/></g></g></g></svg>