<svg width="61" height="75" viewBox="0 0 61 75" version="1.1" xmlns="http://www.w3.org/2000/svg"><title>Group</title><g stroke="none" stroke-width="1" fill="none" fill-rule="evenodd"><g fill="#FFF" fill-rule="nonzero"><g><path d="M.003 46.006L0 45.571C0 28.887 13.523 0 30.206 0c3.029 0 5.953.957 8.712 2.615l-6.842 13.34 6.692 5.116-3.15 15.35 7.48-18.104-4.92-3.543 6.649-7.332c9.294 9.697 15.588 26.753 15.588 38.129 0 .145-.001.29-.003.433-6.638 9.146-17.682 14.873-30.206 14.873-12.523 0-23.567-5.727-30.203-14.871z"/><path d="M30.206 59.877c-12.525 0-23.57-5.73-30.206-14.875 0 16.684 13.524 29.025 30.206 29.025 16.683 0 30.209-12.342 30.209-29.024V45c-6.637 9.148-17.683 14.877-30.209 14.877" opacity=".8"/></g></g></g></svg>